<svg id="Layer_1" data-name="Layer 1" xmlns="http://www.w3.org/2000/svg" viewBox="0 0 80 80"><defs><style>.cls-1{fill:#0071bc;}.cls-2{fill:#fff;}</style></defs><rect class="cls-1" width="80" height="80" rx="12"/><path class="cls-2" d="M18.94,74a10.28,10.28,0,0,1-1.17-.2,15.89,15.89,0,0,1-1.84-.51c-.58-.21-.9-.45-1-.72a13.87,13.87,0,0,1,1-5.52,79.6,79.6,0,0,1,3.32-8q2.1-4.45,4.34-8.74a6.72,6.72,0,0,1-.87,0c-.3,0-.63,0-1,0-.81-.14-1.22-.51-1.22-1.12,0-.34.37-.51,1.12-.51.55,0,1,0,1.43,0s.85.05,1.33.05q2-3.89,3.78-7c1.16-2.08,2-3.66,2.45-4.75A9.19,9.19,0,0,0,31.51,35a5.23,5.23,0,0,0,.2-1.17,2.42,2.42,0,0,0-.2-1A9.78,9.78,0,0,1,33,29.57a25.14,25.14,0,0,1,3.22-4.09,20.67,20.67,0,0,1,4.19-3.42,8.07,8.07,0,0,1,4.18-1.38,7.79,7.79,0,0,1,1.89.36A10.71,10.71,0,0,1,49,22.11a3.15,3.15,0,0,1,1.53,2,1.4,1.4,0,0,1,.1.61.27.27,0,0,1-.31.31,1.61,1.61,0,0,1-.56-.15,1.62,1.62,0,0,0-.56-.16,8,8,0,0,0-4.85,2.1A34.28,34.28,0,0,0,39,32.43a89.29,89.29,0,0,0-5.47,7.71C31.69,43,30,45.81,28.34,48.67a75.12,75.12,0,0,0,10.83-1.28,89.87,89.87,0,0,0,11.34-2.91A59.84,59.84,0,0,0,60.93,40,34.38,34.38,0,0,0,69,34q3.57-3.78,3.57-7.77a8.22,8.22,0,0,0-2.24-5.51,14.18,14.18,0,0,0-7-3.88,39.27,39.27,0,0,0-6.49-1.23A70.51,70.51,0,0,0,49,15.16a83.49,83.49,0,0,0-13.44,1.13,66.31,66.31,0,0,0-12.92,3.42,34.12,34.12,0,0,0-10.11,5.77,13.63,13.63,0,0,0-4.9,8.27,4.82,4.82,0,0,0,.91,3.89,8.2,8.2,0,0,0,3,2.19,23.87,23.87,0,0,1,2.81,1.38c.47.41.71.75.71,1,0,.48-.44.65-1.33.51a14,14,0,0,1-3.52-1.43A11.94,11.94,0,0,1,6.53,38.2,7.29,7.29,0,0,1,5,33.55a5.64,5.64,0,0,1,0-.82,6.17,6.17,0,0,1,.15-.82c0-.06,0-.28-.05-.66s0-.7,0-1a12.6,12.6,0,0,1,3.12-6,30.6,30.6,0,0,1,5.72-5,46,46,0,0,1,6-3.52,48.23,48.23,0,0,1,11.55-3.73A70.08,70.08,0,0,1,45.5,10.67a65.08,65.08,0,0,1,8.94.61,52.69,52.69,0,0,1,8.63,1.94,18.84,18.84,0,0,1,9,6A11.88,11.88,0,0,1,75,27.62a13.66,13.66,0,0,1-2.91,7.56,24.67,24.67,0,0,1-6.64,5.88,48.7,48.7,0,0,1-8.88,4.29,80.44,80.44,0,0,1-9.76,2.91,86,86,0,0,1-10,1.53c-3.51.34-6.66.55-9.45.61Q25,54.8,23.08,58.68c-1.26,2.59-2.2,4.66-2.81,6.23a11.28,11.28,0,0,0-.82,3.17c0,1,.38,1.43,1.13,1.43q1.43,0,3.06-2c.75-.88,1.45-1.71,2.1-2.5s1.21-1.1,1.68-1a.41.41,0,0,1,.1.31,2.56,2.56,0,0,1-.71,1.38c-.48.58-.75.9-.82,1q-.72,1-1.89,2.76a26.5,26.5,0,0,1-2.45,3.11A3.69,3.69,0,0,1,18.94,74Z"/></svg>