<?xml version="1.0" standalone="no"?><!DOCTYPE svg PUBLIC "-//W3C//DTD SVG 1.1//EN" "http://www.w3.org/Graphics/SVG/1.1/DTD/svg11.dtd"><svg t="1676369125499" class="icon" viewBox="0 0 1024 1024" version="1.1" xmlns="http://www.w3.org/2000/svg" p-id="3022" xmlns:xlink="http://www.w3.org/1999/xlink" width="200" height="200"><path d="M512 0C229.216 0 0 229.216 0 512c0 282.768 229.216 512 512 512 282.752 0 512-229.232 512-512C1024 229.216 794.752 0 512 0zM512 992C246.896 992 32 777.088 32 512 32 246.896 246.896 32 512 32c265.056 0 480 214.896 480 480C992 777.088 777.056 992 512 992z" p-id="3023" fill="#1C5CFF"></path><path d="M820.624 425.376C814.368 419.12 806.192 416 798 416L784 416l0-112c0-8.192-3.12-16.384-9.376-22.624C768.368 275.12 760.192 272 752 272L272 272c-8.192 0-16.384 3.12-22.624 9.376C243.12 287.616 240 295.808 240 304l0 416c0 8.192 3.12 16.368 9.376 22.624C255.616 748.88 263.808 752 272 752l480 0c8.192 0 16.368-3.12 22.624-9.376S784 728.192 784 720l0-112 14 0c8.192 0 16.368-3.12 22.624-9.376s9.376-14.432 9.376-22.624l0-128C830 439.808 826.88 431.616 820.624 425.376zM752 704c0 4.096-1.568 8.192-4.688 11.312S740.096 720 736 720L288 720c-4.096 0-8.192-1.568-11.312-4.688S272 708.096 272 704L272 320c0-4.096 1.568-8.192 4.688-11.312S283.904 304 288 304l448 0c4.096 0 8.192 1.568 11.312 4.688S752 315.904 752 320l0 96L574 416c-8.192 0-16.368 3.12-22.624 9.376-6.256 6.24-9.376 14.432-9.376 22.624l0 128c0 8.192 3.12 16.368 9.376 22.624S565.808 608 574 608L752 608 752 704zM798 560c0 4.096-1.568 8.192-4.688 11.312S786.096 576 782 576l-192 0c-4.096 0-8.192-1.568-11.312-4.688S574 564.096 574 560l0-96c0-4.096 1.568-8.192 4.688-11.312S585.904 448 590 448l192 0c4.096 0 8.192 1.568 11.312 4.688s4.688 7.216 4.688 11.312L798 560z" p-id="3024" fill="#1C5CFF"></path><path d="M612 512m-16 0a1 1 0 1 0 32 0 1 1 0 1 0-32 0Z" p-id="3025" fill="#1C5CFF"></path></svg>